<svg xmlns="http://www.w3.org/2000/svg" version="1.1" xmlns:xlink="http://www.w3.org/1999/xlink" xmlns:svgjs="http://svgjs.com/svgjs" width="1024" height="400" preserveAspectRatio="none" viewBox="0 0 1024 400"><g mask="url(&quot;#SvgjsMask1075&quot;)" fill="none"><rect width="1024" height="400" x="0" y="0" fill="rgba(223, 215, 249, 1)"></rect><path d="M607.81 445.44C681.01 411.88 651 178.86 788.14 178.54 925.29 178.22 1048.59 349.93 1148.81 354.54" stroke="rgba(63, 51, 194, 0.44)" stroke-width="2"></path><path d="M309.24 403.56C420.54 394.78 496.91 172.84 691.24 172.22 885.57 171.6 975.24 259.65 1073.24 260.22" stroke="rgba(63, 51, 194, 0.44)" stroke-width="2"></path><path d="M288.63 443.53C410.86 442.04 508.63 308.29 757.09 303.43 1005.55 298.57 1099.03 115.11 1225.55 111.43" stroke="rgba(63, 51, 194, 0.44)" stroke-width="2"></path><path d="M303.16 422.09C372.32 420.44 356.4 327.43 561.76 323.59 767.13 319.75 942.72 153.83 1078.97 151.59" stroke="rgba(63, 51, 194, 0.44)" stroke-width="2"></path><path d="M77.25 475.94C175.36 463.38 229.07 241.22 394.31 239.3 559.55 237.38 552.84 289.3 711.37 289.3 869.9 289.3 948.19 239.45 1028.43 239.3" stroke="rgba(63, 51, 194, 0.44)" stroke-width="2"></path></g><defs><mask id="SvgjsMask1075"><rect width="1024" height="400" fill="#ffffff"></rect></mask></defs></svg>